<?xml version="1.0" standalone="no"?>
<!DOCTYPE svg PUBLIC "-//W3C//DTD SVG 20010904//EN"
 "http://www.w3.org/TR/2001/REC-SVG-20010904/DTD/svg10.dtd">
<svg version="1.0" xmlns="http://www.w3.org/2000/svg"
 width="2000.000000pt" height="2000.000000pt" viewBox="0 0 2000.000000 2000.000000"
 preserveAspectRatio="xMidYMid meet">
<metadata>
Created by potrace 1.14, written by Peter Selinger 2001-2017
</metadata>
<g transform="translate(0.000000,2000.000000) scale(0.100000,-0.100000)"
fill="#000000" stroke="none">
<path d="M1564 19923 c44 -82 106 -170 164 -235 19 -21 30 -38 26 -39 -5 0 2
-5 16 -10 20 -8 22 -12 10 -19 -9 -6 -16 -6 -18 0 -2 6 -13 10 -23 10 -11 0
-17 5 -14 10 3 6 -4 11 -17 11 -31 2 -29 2 -65 -6 -25 -5 -32 -3 -36 12 -4 11
-5 9 -4 -7 2 -20 9 -26 37 -31 19 -3 44 -10 54 -14 14 -6 17 -5 12 3 -4 7 -3
12 2 12 6 0 12 -6 15 -13 5 -13 66 -15 86 -3 5 4 26 -5 47 -19 54 -37 87 -32
184 26 164 99 169 102 184 89 8 -6 55 -68 105 -138 50 -70 101 -138 113 -152
13 -14 39 -45 59 -70 55 -68 136 -150 149 -150 6 0 21 7 34 15 13 9 38 20 56
25 35 10 61 3 39 -11 -7 -4 -10 -11 -6 -15 3 -4 13 -1 22 6 12 10 18 10 30 0
9 -7 38 -14 66 -15 52 -2 55 -4 179 -110 26 -22 73 -61 105 -88 113 -93 137
-146 96 -214 -25 -40 -120 -133 -191 -187 -30 -22 -57 -43 -60 -46 -3 -3 -45
-35 -95 -70 -156 -112 -282 -227 -355 -326 -58 -78 -73 -107 -100 -193 l-31
-101 14 -95 c14 -93 15 -96 78 -179 62 -81 68 -86 185 -149 120 -64 145 -72
354 -116 123 -26 143 -29 343 -36 167 -7 169 -7 162 -29 -46 -140 -57 -205
-60 -376 -4 -205 11 -311 56 -409 102 -216 348 -343 639 -328 197 11 353 64
500 173 240 177 358 433 359 782 1 140 -10 128 91 97 25 -8 119 -33 208 -55
145 -35 177 -40 282 -40 l119 0 103 49 c57 26 117 61 133 76 104 96 148 141
231 235 51 58 100 112 111 121 10 9 33 32 51 52 18 20 66 57 107 82 69 43 81
47 166 55 l92 9 136 -58 c121 -51 136 -60 135 -81 -2 -39 145 -154 284 -224
80 -39 84 -40 97 -22 16 21 -12 38 370 -230 110 -78 270 -187 355 -244 85 -56
157 -104 160 -107 3 -3 -4 -11 -15 -19 -192 -138 -665 -577 -852 -792 -204
-234 -273 -337 -348 -521 -47 -113 -55 -146 -71 -264 -16 -127 -16 -142 0
-253 19 -135 74 -300 129 -386 19 -29 48 -74 64 -100 17 -26 68 -88 114 -139
326 -356 840 -586 1369 -614 258 -14 533 48 731 163 218 128 405 350 540 639
27 59 57 113 66 120 12 9 13 16 5 26 -9 10 -8 18 3 33 13 16 16 17 25 4 7 -11
10 -11 10 -2 0 7 4 11 8 8 4 -2 13 4 20 14 9 14 8 21 -3 30 -21 17 -19 27 8
35 l22 7 -25 7 c-28 8 -41 41 -15 41 9 0 13 -5 9 -11 -4 -7 1 -10 12 -7 14 2
19 13 20 40 1 21 6 43 12 51 6 7 11 22 10 32 0 11 3 28 7 38 4 10 3 17 -4 17
-12 0 -10 27 3 48 4 7 5 34 1 59 -5 35 -3 49 11 64 13 14 15 22 6 31 -8 8 -7
17 5 34 14 22 14 24 -1 24 -11 0 -16 9 -17 28 -1 15 -2 34 -3 42 -1 8 3 21 8
28 5 7 4 12 -3 12 -7 0 -10 4 -7 9 4 5 1 22 -5 38 -11 28 -14 42 -23 117 -4
37 -17 74 -51 151 -8 17 -20 46 -28 65 -49 115 -69 151 -115 205 -29 33 -52
64 -52 68 0 4 -10 19 -22 31 -13 13 -50 54 -83 91 -33 37 -105 113 -160 169
-54 55 -98 104 -97 109 1 4 -3 7 -9 7 -11 0 -82 50 -87 63 -2 4 -20 16 -40 26
-21 11 -56 37 -79 58 -66 61 -105 87 -115 77 -3 -3 -23 11 -43 31 -21 19 -47
35 -59 35 -12 0 -25 9 -31 23 -6 12 -14 23 -20 23 -31 5 -56 18 -51 29 3 8 -5
13 -22 13 -14 0 -28 5 -30 11 -2 6 -12 11 -23 11 -10 0 -19 5 -19 11 0 5 -4 8
-9 4 -5 -3 -13 0 -16 5 -7 11 -50 32 -70 35 -5 0 -9 7 -7 15 2 7 -2 16 -9 20
-17 11 -6 24 80 89 122 93 194 136 309 185 271 114 513 112 805 -7 144 -59
380 -203 542 -332 39 -31 86 -68 105 -83 19 -15 100 -79 180 -143 386 -307
570 -416 771 -457 240 -48 453 40 710 297 199 199 319 398 494 821 143 346
274 504 454 546 68 16 246 19 319 5 125 -25 243 -114 295 -225 131 -277 28
-766 -257 -1224 -71 -115 -156 -232 -168 -232 -4 0 -8 -6 -8 -12 -1 -16 -159
-192 -177 -196 -7 -2 -13 -7 -13 -12 0 -4 -28 -38 -62 -76 -97 -104 -254 -233
-222 -183 3 6 1 15 -7 20 -11 6 -10 11 3 26 14 15 14 20 2 31 -8 7 -14 10 -14
6 0 -4 -15 8 -32 27 -18 19 -32 37 -30 42 1 4 -2 7 -7 7 -4 0 -24 13 -42 30
-19 16 -42 32 -52 36 -9 3 -15 10 -12 15 4 5 -1 9 -9 9 -9 0 -21 9 -28 20 -7
11 -21 20 -30 20 -9 0 -21 6 -25 14 -11 18 -47 36 -73 36 -11 0 -23 7 -26 15
-4 8 -14 15 -24 15 -11 0 -22 5 -25 10 -3 6 -15 10 -25 10 -11 0 -41 7 -67 16
-26 9 -64 18 -83 20 -100 10 -119 13 -137 22 -11 7 -45 9 -79 6 -32 -4 -64 -6
-69 -7 -6 0 -23 3 -39 7 -18 4 -25 3 -21 -4 3 -5 2 -10 -4 -10 -5 0 -11 4 -13
9 -2 6 -24 4 -54 -4 -27 -7 -75 -14 -105 -16 -30 -2 -60 -8 -67 -13 -7 -5 -15
-6 -19 -3 -3 4 -12 2 -19 -4 -8 -6 -28 -13 -46 -14 -74 -8 -97 -17 -92 -34 5
-13 4 -13 -6 2 -10 16 -47 26 -37 10 3 -5 -14 -9 -36 -11 -23 -1 -43 -7 -45
-12 -2 -6 -12 -10 -22 -10 -11 0 -23 -6 -27 -14 -4 -7 -22 -20 -39 -29 -19
-10 -33 -26 -36 -41 -5 -23 -3 -25 21 -19 14 3 27 10 29 14 2 4 10 5 18 2 8
-3 14 0 14 6 0 6 15 11 34 11 19 0 37 4 40 9 5 8 103 30 160 36 12 1 21 3 21
4 0 19 473 20 600 1 49 -7 100 -19 112 -27 12 -8 26 -12 31 -9 12 7 91 -12
139 -34 24 -11 47 -20 53 -20 5 0 10 -5 10 -11 0 -6 7 -8 16 -5 12 5 65 -23
84 -45 3 -3 13 -8 23 -12 10 -4 16 -11 12 -16 -3 -5 3 -12 13 -15 21 -7 72
-60 72 -75 0 -5 7 -12 16 -15 12 -5 13 -10 5 -19 -7 -9 -7 -17 0 -24 7 -7 6
-12 -4 -16 -8 -3 -29 14 -53 44 -201 255 -712 345 -1271 223 -261 -56 -516
-165 -698 -299 -37 -27 -121 -110 -152 -150 -135 -177 -148 -392 -38 -623 81
-169 231 -286 440 -344 117 -32 387 -32 528 0 226 50 397 119 592 240 132 81
223 153 394 313 84 78 151 134 148 123 -4 -10 -13 -52 -22 -91 -9 -40 -21 -73
-26 -73 -6 0 -7 -5 -4 -10 8 -13 -19 -97 -52 -162 -13 -27 -22 -52 -19 -56 10
-16 -33 -72 -56 -72 -21 0 -21 0 -3 -14 19 -14 19 -16 -15 -83 -19 -37 -35
-70 -35 -73 0 -3 -6 -14 -12 -25 -6 -11 -38 -72 -70 -135 -60 -116 -87 -163
-245 -430 -138 -236 -189 -339 -222 -455 -65 -224 14 -376 239 -460 173 -65
320 12 458 242 34 55 169 328 227 458 12 28 51 107 86 177 262 528 601 793
1068 838 246 23 550 -20 786 -112 105 -40 299 -144 375 -200 22 -16 63 -46 91
-66 120 -88 224 -187 650 -622 208 -214 291 -288 414 -372 196 -133 320 -182
495 -193 296 -19 723 167 965 420 36 37 70 73 76 79 29 31 99 154 126 223 83
216 90 422 22 713 -13 58 -31 128 -40 155 -13 44 -26 113 -27 153 0 6 -4 12
-8 12 -4 0 -10 -6 -13 -12 -4 -9 -5 -8 -5 2 2 32 -1 51 -9 47 -4 -3 -7 18 -6
46 1 60 -3 77 -20 77 -11 0 -15 17 -18 72 0 15 -7 29 -14 32 -8 3 -17 24 -20
46 -4 22 -9 38 -12 35 -10 -9 -29 30 -37 72 -4 24 -11 45 -16 49 -5 3 -6 10
-3 16 4 6 2 8 -3 5 -9 -5 -41 45 -49 73 -3 12 -55 117 -65 130 -13 18 -3 43
59 155 164 297 246 483 322 730 68 222 100 391 110 585 11 226 -13 363 -125
706 -46 143 -95 287 -107 321 -12 34 -20 64 -18 66 4 4 1553 17 1973 17 l127
0 0 885 0 885 -215 0 -215 0 0 -38 c0 -26 -7 -45 -19 -56 -23 -21 -82 -26 -88
-8 -3 7 1 10 10 6 45 -17 75 46 39 79 -26 23 -142 24 -142 2 0 -9 7 -18 16
-22 15 -6 15 -7 -1 -19 -12 -9 -16 -20 -11 -38 6 -24 4 -26 -24 -26 -27 0 -29
2 -23 30 5 29 5 30 -35 30 -46 0 -58 11 -42 40 11 20 9 20 -319 20 l-329 0 11
-29 c9 -23 7 -34 -6 -55 -22 -34 -82 -46 -105 -21 -16 16 -15 17 10 11 49 -11
77 43 40 77 -13 12 -37 17 -76 17 -56 0 -57 0 -42 -21 23 -34 3 -76 -44 -90
-40 -12 -70 -7 -70 11 0 7 8 9 20 5 44 -14 68 46 32 78 -17 16 -445 17 -5955
17 -4743 0 -5937 -3 -5937 -12 0 -10 -2 -10 -9 0 -9 15 -91 14 -91 -1 0 -5 7
-6 16 -3 12 4 15 0 12 -17 -3 -22 -48 -39 -48 -18 0 6 -4 11 -10 11 -18 0 -11
-16 13 -29 12 -6 33 -18 47 -26 l25 -15 -25 -1 -25 -1 24 -7 c22 -6 22 -7 -13
-21 -20 -7 -36 -21 -36 -29 0 -11 -3 -11 -13 4 -10 13 -16 15 -21 6 -4 -6 -12
-9 -17 -6 -5 4 -9 1 -9 -5 0 -7 9 -14 20 -17 11 -3 20 -12 20 -19 0 -16 16
-19 25 -4 5 8 11 7 21 -1 11 -9 16 -7 22 12 l9 23 7 -25 c7 -23 8 -23 16 -4 8
19 9 19 9 -2 1 -22 -30 -40 -49 -28 -6 3 -7 -1 -4 -9 4 -10 18 -16 38 -16 41
0 58 12 50 35 -6 14 -4 17 9 12 12 -4 17 -1 17 11 0 15 2 15 10 2 7 -11 5 -18
-5 -26 -8 -6 -15 -19 -15 -28 0 -14 3 -14 20 -4 10 7 23 8 27 4 4 -5 2 -11 -4
-13 -7 -3 -13 -11 -13 -19 0 -8 -6 -11 -15 -8 -21 9 -19 -10 5 -31 19 -18 20
-17 20 4 0 29 18 63 30 56 5 -3 7 -12 3 -20 -3 -10 1 -15 13 -15 16 0 15 -2
-4 -20 -12 -12 -22 -25 -22 -30 0 -9 29 -14 58 -11 6 1 12 -3 12 -9 0 -5 -6
-10 -14 -10 -8 0 -16 -5 -18 -12 -2 -6 -23 -11 -49 -11 -24 0 -32 -2 -16 -4
15 -2 27 -8 27 -13 0 -5 15 -12 33 -16 31 -7 32 -8 7 -14 -14 -4 -36 -5 -49
-2 -19 4 -23 2 -18 -10 3 -9 0 -21 -6 -27 -6 -6 -7 -11 -3 -11 5 0 14 7 20 15
10 13 14 13 40 0 15 -8 44 -15 64 -15 42 0 35 -12 -10 -17 -41 -4 -44 -8 -25
-37 17 -26 13 -36 -15 -36 -24 0 -23 -21 2 -50 11 -13 20 -18 20 -11 0 7 9 9
26 5 20 -5 25 -4 19 6 -5 8 -2 11 11 8 13 -2 19 -12 19 -28 0 -43 57 -32 75
15 8 18 9 17 9 -7 1 -16 6 -27 12 -25 13 2 49 -54 42 -65 -2 -5 5 -8 16 -8 11
0 23 -4 26 -10 3 -5 -3 -10 -14 -10 -25 0 -43 -29 -28 -45 6 -7 21 -10 32 -7
20 4 20 4 0 -11 -24 -19 -18 -28 14 -20 13 3 20 11 17 19 -3 8 -1 14 5 14 10
0 13 -7 23 -52 5 -20 2 -28 -8 -28 -7 0 -16 -9 -19 -19 -4 -17 -2 -18 13 -9
14 9 22 9 34 -1 11 -9 16 -10 16 -2 0 6 9 11 20 11 11 0 20 -7 20 -15 0 -8 6
-12 14 -9 16 6 31 -12 17 -20 -5 -3 -7 -15 -4 -26 3 -11 0 -20 -6 -20 -6 0
-11 -9 -11 -20 0 -11 3 -20 8 -20 16 1 42 28 42 44 0 10 4 15 9 12 5 -3 7 -15
4 -26 -4 -16 0 -20 21 -20 26 0 26 0 11 -30 -16 -30 -40 -34 -28 -5 3 8 0 15
-7 15 -6 0 -14 -9 -17 -19 -3 -11 -12 -22 -22 -24 -11 -3 -9 -5 7 -6 17 -1 22
-7 22 -28 1 -27 1 -27 16 -8 15 20 15 20 35 -5 17 -22 19 -22 17 -5 -4 25 29
33 35 8 4 -15 5 -14 6 3 1 27 31 42 31 16 0 -9 5 -24 11 -32 9 -12 10 -11 6 6
-3 14 3 25 17 34 17 10 19 10 9 -1 -17 -17 -16 -26 1 -32 10 -4 13 -1 9 9 -3
7 0 14 5 14 6 0 12 6 15 13 2 6 2 0 0 -15 -3 -21 0 -28 11 -28 9 0 16 -7 16
-15 0 -8 9 -15 19 -15 22 0 36 -16 22 -24 -5 -4 -12 0 -14 6 -4 10 -6 10 -6 0
-1 -18 18 -52 29 -52 5 0 7 8 3 18 -8 21 -2 16 21 -22 10 -16 13 -25 7 -22 -6
4 -11 2 -11 -3 0 -6 4 -11 9 -11 5 0 24 -26 42 -57 59 -105 150 -213 227 -270
105 -77 221 -120 402 -147 l145 -21 4375 3 c2406 1 4536 4 4732 6 l357 4 35
-91 c81 -211 197 -589 218 -704 54 -313 -24 -746 -208 -1160 -35 -79 -64 -145
-64 -148 0 -3 -25 -46 -56 -96 l-57 -91 -13 38 c-7 21 -18 40 -24 42 -5 2 -10
10 -10 18 0 8 -13 28 -29 43 -29 28 -33 44 -18 68 4 6 3 14 -2 18 -13 7 -41
64 -41 82 0 7 -4 13 -10 13 -5 0 -10 7 -10 16 0 8 -4 13 -9 10 -5 -3 -11 3
-14 14 -3 11 -13 20 -22 20 -13 0 -16 6 -11 25 5 18 2 27 -9 31 -8 4 -15 14
-15 23 0 22 -55 75 -69 67 -6 -4 -11 0 -11 9 0 9 5 13 11 9 6 -3 4 5 -6 19 -9
14 -23 28 -31 31 -8 3 -14 14 -14 26 0 11 -9 25 -20 32 -11 7 -20 18 -20 25 0
7 -4 13 -8 13 -13 0 -89 74 -95 92 -4 11 -12 15 -22 12 -9 -4 -15 -2 -13 3 2
5 -21 31 -51 58 -29 28 -61 57 -71 66 -9 9 -32 21 -50 28 -18 6 -48 22 -66 36
-18 14 -37 25 -42 25 -6 0 -12 7 -16 15 -3 8 -14 15 -25 15 -26 0 -71 21 -71
32 0 14 -86 48 -125 50 -19 1 -35 4 -35 8 0 3 -28 12 -62 18 -34 6 -64 16 -67
21 -13 19 -311 37 -311 17 0 -4 -7 -5 -15 -2 -14 5 -63 -5 -152 -33 -47 -14
-203 -93 -203 -103 0 -4 -4 -8 -10 -8 -19 0 -200 -194 -200 -214 0 -8 -18 -36
-40 -62 -57 -69 -118 -199 -135 -289 -25 -130 -20 -286 14 -429 27 -113 40
-151 109 -326 117 -298 298 -562 470 -688 157 -115 254 -148 480 -164 232 -17
337 4 537 105 175 88 326 211 507 413 l111 125 59 -108 c232 -422 349 -696
392 -919 17 -86 23 -254 11 -319 -25 -136 -97 -278 -193 -379 -109 -115 -316
-248 -474 -307 -43 -16 -88 -34 -98 -39 -11 -6 -70 -20 -132 -31 -187 -34
-349 -11 -513 73 -101 52 -175 110 -296 235 -124 126 -163 171 -347 392 -131
157 -364 397 -457 471 -22 18 -39 37 -37 42 2 6 -3 8 -10 5 -8 -2 -28 10 -46
28 -50 49 -280 182 -411 237 -252 107 -581 159 -861 137 -304 -24 -563 -142
-795 -364 -168 -161 -362 -483 -575 -959 -94 -208 -193 -354 -275 -402 -62
-36 -140 -36 -220 0 -100 45 -146 103 -144 183 0 39 17 92 19 63 0 -11 4 -10
12 5 12 19 13 18 18 -10 4 -21 16 -36 45 -52 22 -13 39 -29 37 -37 -1 -8 2
-17 8 -21 5 -3 10 2 10 12 1 17 1 17 11 1 5 -10 16 -18 23 -18 28 0 24 28 -7
57 -18 16 -42 41 -54 55 -11 14 -29 31 -40 36 -16 10 -16 13 -4 34 12 20 12
21 0 11 -9 -7 -20 -8 -28 -4 -24 15 80 190 279 471 181 255 361 544 376 605 3
13 14 32 25 44 10 11 19 29 19 39 0 10 3 22 6 25 8 8 37 88 64 177 11 36 25
79 30 96 6 17 10 38 10 47 0 9 6 17 14 17 9 0 12 9 9 28 -4 21 -2 24 6 12 7
-9 11 -10 11 -3 0 6 -4 15 -10 18 -5 3 -10 11 -10 16 0 6 4 8 9 4 13 -7 23 28
15 49 -3 9 -1 23 5 30 9 10 9 16 1 21 -8 5 -6 13 6 26 12 13 13 19 4 19 -10 0
-10 3 -1 14 7 8 8 17 3 20 -10 6 -7 60 4 78 4 7 2 8 -4 4 -7 -4 -12 -3 -12 1
0 20 35 54 127 123 232 175 336 280 516 517 207 274 393 638 463 903 8 30 18
62 21 70 3 8 7 35 9 59 1 24 7 47 14 51 7 4 9 16 6 28 -5 14 0 25 16 37 13 10
16 15 7 12 -15 -5 -15 -1 -6 29 6 19 14 34 19 34 4 0 8 5 8 10 0 6 -7 10 -15
10 -8 0 -15 5 -15 10 0 6 4 10 10 10 5 0 15 10 21 22 9 17 9 24 -5 33 -9 7
-16 25 -15 41 1 29 1 29 9 4 5 -18 9 -21 13 -10 8 20 4 52 -8 66 -7 9 -12 8
-17 -5 -8 -20 -10 81 -2 103 3 9 10 13 15 10 5 -3 9 8 9 25 0 16 -5 31 -11 33
-9 3 -9 9 0 25 7 15 8 24 1 28 -6 4 -8 10 -5 15 3 5 1 11 -5 15 -5 3 -10 14
-10 23 0 19 -41 105 -52 110 -4 2 -4 10 -1 18 3 9 -2 14 -17 14 -12 0 -18 4
-15 10 3 6 -1 17 -9 26 -9 8 -16 22 -16 30 0 8 -4 14 -8 14 -5 0 -26 18 -48
40 -21 22 -43 40 -48 40 -5 0 -24 12 -43 26 -19 14 -37 23 -40 20 -3 -3 -11
-2 -17 3 -45 36 -280 61 -406 43 -42 -6 -69 -6 -77 0 -8 7 -22 3 -43 -12 -23
-17 -34 -19 -44 -11 -10 9 -15 8 -20 -4 -3 -9 -10 -14 -14 -11 -5 3 -18 -1
-28 -9 -10 -8 -34 -15 -51 -15 -18 0 -33 -5 -33 -10 0 -6 -20 -15 -44 -22 -29
-8 -42 -16 -39 -25 3 -8 -2 -13 -13 -13 -11 0 -26 -5 -34 -10 -13 -9 -13 -11
0 -20 13 -8 12 -10 -3 -10 -21 0 -120 -97 -112 -110 4 -6 0 -10 -7 -10 -10 0
-9 -3 2 -11 12 -9 11 -10 -7 -6 -27 6 -39 -9 -34 -41 3 -25 -24 -62 -45 -62
-7 0 -16 -5 -20 -12 -4 -7 -3 -8 4 -4 7 4 12 1 12 -8 0 -9 -4 -16 -10 -16 -5
0 -18 -20 -29 -43 -11 -24 -27 -50 -36 -57 -8 -7 -15 -18 -15 -25 0 -6 -11
-34 -25 -61 -14 -27 -25 -52 -25 -56 0 -4 -14 -36 -30 -70 -16 -34 -30 -67
-30 -73 0 -23 -91 -218 -149 -320 -18 -33 -39 -69 -45 -80 -28 -49 -72 -104
-83 -105 -7 0 -13 -6 -13 -14 0 -8 -9 -17 -19 -21 -11 -3 -22 -12 -25 -20 -3
-8 -13 -15 -23 -15 -15 0 -16 -2 -3 -10 14 -9 11 -11 -59 -35 -7 -3 -11 -13
-8 -24 4 -15 -2 -21 -30 -26 -52 -9 -82 -26 -89 -47 -4 -13 -12 -18 -24 -15
-9 2 -26 0 -36 -6 -10 -6 -37 -14 -59 -18 -22 -4 -57 -12 -79 -17 -47 -13
-224 3 -246 22 -8 7 -34 18 -57 26 -24 7 -43 17 -43 22 0 4 -15 8 -33 8 -23 0
-41 8 -57 25 -13 14 -32 25 -42 25 -10 0 -21 7 -24 15 -4 8 -13 15 -21 15 -9
0 -26 11 -38 24 -12 13 -32 27 -44 31 -12 4 -37 21 -55 38 -68 66 -114 107
-121 107 -4 0 -18 9 -31 19 -17 13 -20 21 -12 24 7 3 3 6 -9 6 -21 1 -76 41
-140 101 -18 16 -36 30 -41 30 -4 0 -23 20 -42 45 -19 25 -40 45 -47 45 -7 0
-13 4 -13 10 0 5 -11 12 -25 16 -14 3 -25 11 -25 16 0 13 -41 47 -57 48 -7 0
-13 5 -13 10 0 6 -7 10 -16 10 -8 0 -12 5 -9 10 4 6 -7 13 -25 16 -17 4 -35
15 -40 25 -6 10 -26 26 -45 35 -19 9 -35 20 -35 25 0 5 -6 9 -13 9 -7 0 -23
11 -35 25 -12 14 -30 25 -41 25 -10 0 -24 7 -31 15 -7 8 -19 15 -26 15 -8 0
-14 5 -14 10 0 6 -7 10 -16 10 -9 0 -28 9 -43 19 -51 37 -249 97 -344 105 -29
3 -52 5 -52 6 0 6 -152 7 -160 1 -5 -5 -29 -8 -53 -7 -23 0 -42 -3 -42 -8 0
-4 -6 -6 -14 -3 -14 6 -87 -15 -119 -33 -10 -6 -22 -8 -26 -5 -5 3 -12 -2 -15
-11 -4 -10 -14 -14 -26 -11 -13 3 -20 0 -20 -9 0 -8 -5 -14 -11 -14 -21 0
-158 -72 -163 -86 -3 -8 -12 -14 -20 -14 -8 0 -21 -9 -29 -20 -7 -11 -24 -21
-38 -24 -13 -2 -23 -9 -21 -16 2 -7 -5 -9 -18 -5 -15 5 -18 3 -14 -8 5 -14
-42 -40 -72 -40 -8 0 -14 -4 -14 -7 0 -4 -15 -13 -32 -20 -41 -17 -68 -39 -78
-66 -13 -32 -157 -126 -178 -115 -9 4 -44 11 -77 14 -61 6 -145 39 -145 57 0
6 -9 10 -20 10 -12 0 -20 7 -21 18 0 17 -118 83 -147 82 -7 0 -17 10 -22 23
-8 19 -9 20 -9 3 -1 -19 -1 -19 -20 0 -10 10 -19 21 -19 24 0 18 -4 21 -16 11
-11 -9 -15 -8 -21 6 -5 10 -9 21 -9 24 -2 12 -36 40 -62 50 -21 7 -25 12 -15
18 8 6 9 11 3 15 -6 3 -13 2 -17 -4 -3 -6 -17 1 -31 15 -14 14 -33 25 -43 25
-10 0 -31 16 -47 35 -16 19 -33 35 -37 35 -12 0 -97 71 -97 80 0 4 -15 23 -32
42 -115 121 -152 158 -160 158 -5 0 -21 12 -36 26 -15 14 -46 35 -69 46 -24
11 -43 24 -43 29 0 5 -6 9 -14 9 -8 0 -16 4 -18 9 -1 5 -21 12 -43 14 -39 5
-58 10 -100 27 -11 4 -39 13 -62 20 -24 7 -43 17 -43 23 0 5 -7 7 -15 4 -8 -4
-17 -2 -20 3 -4 6 -15 10 -26 10 -11 0 -22 7 -25 15 -4 8 -10 13 -14 10 -5 -3
-11 -2 -14 3 -3 5 -21 8 -40 7 -20 0 -32 3 -29 9 4 5 -1 7 -9 3 -9 -3 -28 1
-44 9 -15 8 -33 13 -40 10 -7 -3 -15 -2 -19 2 -4 4 -10 7 -13 8 -77 6 -169 17
-176 22 -5 3 -35 5 -67 4 -33 0 -59 3 -59 7 0 5 -12 7 -27 4 -41 -5 -143 -4
-153 2 -4 3 -19 1 -32 -4 -13 -5 -34 -4 -48 1 -18 6 -39 4 -67 -6 -27 -10 -44
-11 -51 -4 -6 6 -12 6 -16 -1 -4 -6 -27 -11 -52 -11 -24 0 -44 -4 -44 -10 0
-5 -8 -9 -17 -8 -10 1 -33 0 -52 0 -33 -2 -34 -3 -15 -18 18 -15 18 -15 -8 -9
-22 4 -28 2 -28 -12 0 -15 -2 -16 -10 -3 -5 9 -5 19 2 27 7 9 7 13 0 13 -17 0
-32 -34 -22 -50 7 -11 14 -11 38 -1 16 7 43 13 61 13 17 1 31 4 31 8 0 6 88 6
100 0 14 -8 66 -4 73 5 5 7 10 7 15 0 10 -14 42 -18 42 -5 0 6 5 8 11 5 5 -4
51 -9 101 -11 51 -3 103 -6 117 -8 14 -2 68 -9 119 -16 96 -12 162 -33 162
-50 0 -21 -32 -22 -122 -1 -147 33 -451 55 -577 42 -177 -19 -264 -13 -219 15
7 4 8 3 4 -4 -4 -8 0 -12 12 -12 22 0 25 27 5 34 -8 4 -11 11 -7 18 4 7 -2 5
-13 -5 -11 -9 -27 -15 -35 -12 -9 4 -19 -3 -26 -17 -8 -18 -11 -19 -11 -5 -1
18 -16 23 -25 8 -4 -5 0 -11 6 -14 7 -2 -6 -7 -30 -11 -29 -5 -47 -4 -57 4
-12 10 -15 9 -15 -6 0 -11 -12 -30 -25 -43 l-25 -23 -1 23 c0 13 -3 18 -6 11
-2 -6 -10 -9 -16 -5 -7 4 -6 0 1 -10 12 -14 10 -17 -15 -22 -52 -12 -126 -45
-207 -94 -45 -26 -100 -58 -123 -71 -24 -13 -64 -50 -89 -82 -25 -33 -50 -55
-56 -52 -7 4 -8 2 -4 -4 4 -6 -14 -38 -38 -72 -30 -41 -47 -75 -52 -105 -3
-25 -11 -45 -18 -45 -6 0 -4 -5 4 -10 8 -5 10 -10 4 -10 -6 0 -9 -12 -7 -27 6
-49 0 -51 -164 -45 -120 4 -153 8 -153 18 0 8 8 14 18 15 12 0 13 2 3 6 -8 3
-20 -2 -28 -13 -12 -16 -13 -16 -13 -1 0 10 -8 17 -20 17 -12 0 -20 -7 -20
-16 0 -15 -28 -16 -337 -9 -186 4 -349 9 -363 10 -14 1 -48 3 -77 4 -42 1 -51
4 -47 16 4 8 17 15 30 15 13 0 24 6 24 13 0 9 2 9 8 0 5 -7 21 -9 47 -5 22 4
85 7 140 6 81 0 101 3 107 15 6 14 7 13 7 -1 1 -19 21 -26 21 -8 0 6 7 10 16
10 8 0 12 -4 9 -10 -4 -6 2 -7 16 -1 32 11 36 31 7 33 -44 3 -53 4 -75 12 -39
13 -63 15 -63 5 0 -15 -21 -10 -39 9 -19 20 -47 27 -55 13 -4 -5 -19 2 -33 15
-22 20 -29 23 -38 12 -14 -19 -78 -41 -72 -25 3 7 10 11 16 9 7 -1 10 2 6 8
-5 9 60 146 76 160 3 3 21 34 40 70 64 118 77 141 290 502 34 60 68 107 73
107 33 -4 46 3 46 23 0 20 -1 21 -20 3 -16 -14 -20 -15 -20 -4 0 8 6 24 14 35
77 109 381 680 455 854 13 30 47 109 76 175 58 134 62 147 75 247 6 52 5 96
-6 162 -8 50 -12 101 -9 114 l5 22 -595 0 c-435 0 -595 -3 -595 -11 0 -13 51
-106 92 -166 36 -54 131 -107 219 -122 89 -15 168 -14 298 4 98 14 117 14 168
1 70 -18 116 -10 167 29 38 29 41 36 52 107 6 44 8 48 41 54 18 3 37 3 41 -1
14 -13 8 -248 -7 -285 -19 -48 -43 -101 -126 -290 -67 -150 -211 -433 -281
-550 -18 -30 -83 -143 -145 -250 -62 -107 -151 -260 -197 -340 -46 -80 -133
-230 -192 -335 -192 -340 -191 -338 -228 -342 -24 -3 -32 0 -32 11 0 17 -20
21 -35 7 -12 -11 -95 -19 -95 -9 0 3 -14 2 -32 -3 -18 -5 -34 -5 -37 -1 -5 6
-21 9 -91 16 -9 1 -21 5 -28 10 -7 4 -12 2 -12 -6 0 -10 -2 -10 -8 -1 -4 7
-23 14 -42 16 -19 2 -44 8 -55 12 -47 17 -72 24 -102 30 -18 4 -37 14 -43 23
-5 10 -10 12 -10 4 0 -8 -5 -9 -17 -3 -10 5 -37 18 -60 28 -23 10 -43 23 -43
28 0 6 -12 18 -27 27 -44 26 -123 109 -123 129 0 10 -5 21 -10 24 -6 4 -8 10
-5 15 3 5 -3 14 -14 20 -18 9 -21 7 -27 -17 -3 -16 -7 -34 -10 -41 -2 -7 1
-10 6 -7 6 4 10 -7 10 -24 0 -16 7 -36 15 -45 8 -8 15 -19 15 -25 0 -6 5 -11
10 -11 6 0 36 -27 67 -60 30 -33 62 -60 71 -60 8 0 36 -13 61 -28 57 -35 78
-44 116 -49 16 -3 32 -8 35 -12 3 -4 14 -8 25 -8 11 -1 31 -4 45 -7 14 -2 64
-12 112 -22 59 -11 85 -20 81 -28 -4 -7 -1 -6 9 1 8 7 17 11 20 8 3 -3 42 -7
88 -10 46 -2 86 -8 89 -13 3 -5 18 -8 34 -6 19 2 27 -2 27 -13 0 -13 -24 -14
-207 -8 -239 8 -224 6 -408 47 -114 25 -160 41 -248 85 -93 48 -114 63 -147
108 -22 30 -44 56 -49 59 -5 3 -15 38 -21 78 -12 66 -11 77 11 147 29 93 82
174 173 264 73 72 137 117 81 58 -23 -25 -26 -31 -10 -25 11 4 23 12 27 18 5
7 8 7 8 -1 0 -7 5 -13 11 -13 8 0 10 13 6 38 -4 20 -3 33 1 27 4 -5 15 -11 25
-13 14 -2 16 2 11 22 -4 17 -2 26 6 26 6 0 8 -5 5 -11 -4 -6 2 -5 14 3 12 7
21 18 21 25 0 12 153 133 169 133 6 0 14 6 18 13 15 24 110 96 117 89 4 -4 6
-2 4 5 -1 6 18 34 45 61 26 28 47 53 47 56 0 4 9 20 21 35 14 20 23 50 26 94
5 54 2 72 -18 111 -22 45 -90 116 -194 203 l-50 42 46 -1 c67 -1 110 28 157
105 9 16 60 55 112 87 181 113 261 196 300 314 21 65 22 76 12 161 -7 50 -17
105 -23 123 l-11 32 -1103 0 -1103 0 42 -77z m4873 25 c-3 -8 -6 -5 -6 6 -1
11 2 17 5 13 3 -3 4 -12 1 -19z m109 -64 c8 3 14 2 14 -3 0 -5 -10 -11 -23
-13 -21 -4 -23 -1 -18 26 5 27 6 28 9 8 2 -15 8 -22 18 -18z m-80 17 c-4 -5 0
-12 6 -14 7 -3 3 -6 -9 -6 -16 -1 -21 3 -17 14 4 8 10 15 16 15 5 0 7 -4 4 -9z
m94 -116 c4 3 11 -2 14 -11 4 -10 2 -13 -7 -8 -28 16 -36 27 -30 38 5 7 9 5
11 -7 2 -9 7 -15 12 -12z m65 5 c3 -5 -1 -10 -10 -10 -9 0 -13 5 -10 10 3 6 8
10 10 10 2 0 7 -4 10 -10z m5 -91 c0 -16 -30 -43 -38 -34 -4 4 -1 10 6 12 6 3
12 11 12 19 0 8 5 14 10 14 6 0 10 -5 10 -11z m37 -35 c-3 -3 -12 -4 -19 -1
-8 3 -5 6 6 6 11 1 17 -2 13 -5z m12093 -57 c0 -23 -17 -47 -32 -47 -11 0 -6
54 7 62 18 13 25 9 25 -15z m990 -6 c0 -16 -7 -34 -15 -41 -12 -10 -16 -8 -23
11 -12 32 -5 55 19 56 15 1 19 -5 19 -26z m-13023 -123 c-3 -8 -6 -5 -6 6 -1
11 2 17 5 13 3 -3 4 -12 1 -19z m-33 -23 c-5 -19 -2 -25 9 -25 9 0 19 -4 22
-10 4 -6 -3 -6 -21 0 -15 6 -36 8 -48 5 -18 -5 -17 -3 4 10 14 8 18 15 10 14
-58 -5 -63 8 -8 21 18 4 34 8 36 9 1 1 0 -10 -4 -24z m11715 -173 c22 -41 -40
-145 -69 -116 -17 17 -18 73 -2 96 29 42 55 50 71 20z m987 -7 c7 -30 -10 -76
-38 -102 -19 -17 -20 -17 -34 2 -32 44 -6 125 41 125 18 0 26 -7 31 -25z
m-12444 -139 c3 -16 1 -23 -7 -19 -7 2 -11 13 -8 24 7 25 10 24 15 -5z m114
-64 c-4 -3 -11 0 -16 8 -15 24 -11 33 6 15 9 -9 13 -19 10 -23z m-21 -91 c-3
-6 -11 -11 -16 -11 -5 0 -4 6 3 14 14 16 24 13 13 -3z m78 -8 c-7 -2 -19 -2
-25 0 -7 3 -2 5 12 5 14 0 19 -2 13 -5z m92 -71 c-3 -3 -11 0 -18 7 -9 10 -8
11 6 5 10 -3 15 -9 12 -12z m2136 -39 c-8 -31 -76 -72 -93 -55 -21 21 -3 45
47 63 28 10 51 18 52 18 1 1 -2 -11 -6 -26z m-2041 -3 c0 -5 -4 -10 -10 -10
-5 0 -10 5 -10 10 0 6 5 10 10 10 6 0 10 -4 10 -10z m6258 -825 c40 -8 82 -21
95 -29 12 -7 36 -17 52 -21 61 -15 5 -15 -66 0 -41 8 -110 15 -155 15 -87 0
-251 -22 -297 -39 -16 -6 -36 -11 -45 -10 -9 0 -3 5 13 11 17 6 37 16 45 23 8
7 35 18 60 25 25 7 54 16 65 20 53 22 145 24 233 5z m237 -85 c3 -5 2 -10 -4
-10 -5 0 -13 5 -16 10 -3 6 -2 10 4 10 5 0 13 -4 16 -10z m-7352 -25 c70 -9
142 -21 160 -28 l32 -14 -49 -6 c-114 -16 -291 -156 -476 -377 -64 -76 -197
-200 -215 -200 -5 0 -3 5 5 10 18 12 -20 15 -123 11 -37 -2 -73 1 -80 7 -6 5
-19 10 -27 10 -8 1 -33 3 -55 4 -22 2 -38 7 -37 12 4 10 -17 26 -33 26 -5 0
-4 -4 4 -9 10 -7 10 -10 1 -16 -7 -4 -15 -3 -19 2 -10 15 -42 25 -90 27 -25 1
-46 7 -49 14 -7 21 -22 13 -22 -13 0 -17 -6 -25 -17 -26 -10 -1 5 -9 32 -18
28 -10 57 -20 65 -24 52 -23 251 -57 270 -47 9 5 39 7 68 6 28 -2 49 1 46 6
-3 4 -1 8 5 8 30 0 13 -20 -39 -48 -56 -30 -65 -32 -168 -32 -96 0 -124 4
-246 39 -75 21 -139 41 -142 44 -9 8 8 37 22 37 8 0 14 5 14 10 0 6 6 10 14
10 8 0 22 7 30 16 9 8 16 13 16 9 0 -3 5 -3 10 0 7 4 7 13 0 26 -6 11 -15 17
-20 14 -5 -3 -12 0 -16 6 -4 8 -9 7 -15 -2 -7 -11 -9 -10 -9 4 0 12 -4 16 -12
11 -9 -5 -8 -2 1 9 12 16 11 20 -7 38 -24 21 -30 45 -9 33 9 -6 9 -4 -1 8 -9
12 -10 18 -2 23 8 5 8 10 0 20 -12 15 -53 28 -44 14 3 -5 -2 -18 -10 -30 -8
-12 -13 -26 -11 -33 3 -6 -7 -20 -22 -30 -23 -17 -26 -17 -20 -3 4 12 1 17
-12 17 -10 0 -21 3 -24 6 -7 7 88 134 110 147 7 4 13 14 13 22 0 16 36 39 49
30 5 -3 17 -2 26 1 12 5 13 9 5 14 -8 5 23 29 85 65 86 51 117 63 264 100 252
65 461 76 774 40z m6387 -136 c0 -5 -4 -9 -10 -9 -5 0 -10 7 -10 16 0 8 5 12
10 9 6 -3 10 -10 10 -16z m-5169 -286 c13 -15 12 -15 -8 -4 -24 12 -29 21 -14
21 5 0 15 -7 22 -17z m-2531 -25 c0 -13 -23 -5 -28 10 -2 7 2 10 12 6 9 -3 16
-11 16 -16z m2630 -50 c0 -13 -5 -9 -31 19 l-24 26 27 -19 c15 -10 28 -22 28
-26z m62 -29 c23 -12 53 -27 66 -32 12 -6 25 -20 28 -32 5 -21 10 -25 84 -62
25 -13 41 -23 36 -23 -5 0 -2 -8 5 -17 26 -32 -13 -8 -144 87 -147 106 -161
121 -75 79z m-2723 -46 c-12 -15 -12 -16 4 -10 11 4 16 3 12 -3 -9 -15 -35
-12 -35 4 0 12 11 21 29 25 2 1 -3 -7 -10 -16z m12928 -15 c-3 -7 -5 -2 -5 12
0 14 2 19 5 13 2 -7 2 -19 0 -25z m-12870 -14 c-3 -3 -12 -4 -19 -1 -8 3 -5 6
6 6 11 1 17 -2 13 -5z m12879 -166 c-4 -90 -11 -179 -16 -198 l-10 -35 5 40
c2 22 7 111 11 198 4 86 9 157 12 157 3 0 2 -73 -2 -162z m-13416 97 c69 -3
171 -8 228 -11 l102 -6 0 -121 c-1 -383 -139 -628 -444 -786 -44 -23 -87 -41
-97 -41 -9 0 -34 -7 -55 -16 -59 -25 -261 -30 -348 -10 -99 23 -182 66 -253
131 -114 103 -149 225 -140 490 5 163 17 227 59 334 l22 54 400 -7 c221 -4
457 -9 526 -11z m3470 -60 c7 -9 19 -14 27 -11 7 3 13 2 13 -2 0 -13 64 -47
83 -44 21 4 23 -16 2 -25 -14 -5 -155 79 -155 92 0 11 18 4 30 -10z m2349 -29
c7 -9 17 -14 21 -11 4 2 16 -6 28 -19 11 -13 41 -36 66 -51 24 -14 62 -42 83
-61 21 -20 52 -43 68 -51 38 -20 125 -100 117 -108 -4 -3 1 -3 10 0 11 4 20
-1 28 -14 6 -11 24 -28 40 -36 16 -8 48 -34 72 -58 24 -24 50 -46 58 -49 28
-10 151 -100 157 -114 2 -7 17 -18 31 -24 15 -6 54 -26 87 -44 33 -19 76 -42
95 -52 19 -10 37 -20 40 -23 3 -4 19 -13 35 -21 17 -8 32 -18 35 -21 3 -3 23
-11 45 -17 l40 -11 -50 6 c-27 3 -88 21 -135 41 -77 31 -119 55 -234 131 -36
24 -354 276 -366 290 -23 28 -260 221 -367 300 -40 29 -73 55 -73 57 0 8 56
-25 69 -40z m-2171 -85 c32 -27 27 -35 -8 -14 -16 9 -30 21 -30 25 0 13 13 9
38 -11z m82 -61 c0 -5 -2 -10 -4 -10 -3 0 -8 5 -11 10 -3 6 -1 10 4 10 6 0 11
-4 11 -10z m7638 -47 c-16 -2 -40 -2 -55 0 -16 2 -3 4 27 4 30 0 43 -2 28 -4z
m2019 -85 c-3 -7 -5 -2 -5 12 0 14 2 19 5 13 2 -7 2 -19 0 -25z m-10 -60 c-3
-7 -5 -2 -5 12 0 14 2 19 5 13 2 -7 2 -19 0 -25z m-9341 13 c-3 -5 2 -15 11
-22 15 -12 16 -12 10 5 -5 13 3 9 28 -13 20 -17 40 -31 46 -31 6 0 7 -4 4 -10
-3 -5 2 -10 12 -10 21 -1 63 -33 63 -49 0 -6 6 -8 13 -5 8 3 20 -2 27 -11 7
-8 22 -15 35 -15 12 0 34 -11 49 -25 15 -14 39 -31 54 -39 15 -9 21 -15 14
-16 -18 0 -4 -20 14 -20 9 0 30 -11 48 -25 18 -14 38 -25 44 -25 6 0 19 -14
27 -30 9 -17 20 -28 25 -25 14 8 50 -13 47 -28 -1 -7 4 -11 11 -9 6 1 12 -2
12 -7 0 -5 8 -12 18 -15 9 -3 31 -18 47 -32 17 -14 44 -37 60 -51 17 -14 23
-22 15 -19 -8 4 -6 1 4 -6 40 -27 124 -107 119 -112 -4 -3 1 -6 10 -6 8 0 19
-9 22 -20 3 -11 12 -20 20 -20 8 0 17 -9 20 -20 3 -11 11 -20 16 -20 5 0 14
-12 19 -26 6 -14 19 -28 30 -31 11 -3 20 -11 20 -19 0 -7 8 -17 18 -23 9 -5
17 -13 17 -18 0 -4 3 -7 7 -6 3 1 12 -4 18 -12 10 -12 10 -15 0 -15 -6 0 8
-24 32 -52 47 -56 92 -128 80 -128 -4 1 -23 26 -42 56 -19 31 -44 66 -55 77
-11 12 -32 38 -47 57 -14 19 -73 85 -131 146 -59 61 -103 115 -99 119 4 5 1 5
-6 0 -9 -5 -27 5 -50 28 -36 33 -235 189 -324 253 -60 43 -346 237 -366 249
-46 27 -82 58 -82 71 0 8 5 14 11 14 5 0 8 -4 5 -9z m9324 -107 c-7 -30 -14
-53 -17 -50 -3 3 0 34 7 68 8 34 15 57 18 50 2 -6 -2 -37 -8 -68z m-1793 26
c369 -74 702 -330 947 -728 75 -122 206 -364 206 -380 0 -27 -116 -172 -265
-331 -228 -244 -562 -423 -759 -409 -162 12 -352 145 -498 348 -63 87 -191
328 -182 342 3 4 1 8 -4 8 -15 0 -55 101 -44 112 6 6 6 20 -2 39 -8 24 -8 32
3 38 7 5 10 14 7 20 -4 6 -12 9 -17 6 -5 -4 -9 11 -9 32 0 25 -3 33 -9 24 -11
-17 -23 2 -15 24 4 9 -2 25 -13 38 -21 23 -38 71 -34 96 1 8 -2 10 -10 6 -9
-6 -10 -1 -5 20 6 22 4 26 -8 22 -18 -7 -23 18 -6 28 14 9 12 25 -2 23 -10 -2
-13 26 -13 117 1 111 3 126 32 197 17 42 49 98 70 125 129 166 369 236 630
183z m-7568 -152 c481 -314 683 -478 883 -719 241 -291 360 -555 375 -836 16
-289 -89 -548 -319 -792 -42 -44 -83 -81 -91 -81 -8 0 -28 -7 -45 -16 -18 -8
-36 -13 -41 -9 -6 3 -18 2 -28 -3 -45 -23 -95 -42 -111 -42 -10 0 -23 -5 -28
-10 -6 -6 -28 -11 -50 -13 -21 -1 -44 -6 -50 -9 -28 -18 -333 -8 -449 14 -27
5 -59 10 -70 12 -11 1 -36 8 -55 14 -19 6 -52 14 -74 17 -42 5 -71 12 -101 25
-11 4 -41 14 -67 20 -27 7 -48 17 -48 21 0 5 -9 9 -19 9 -20 0 -144 57 -193
88 -61 40 -123 73 -145 78 -13 4 -23 9 -23 13 0 4 -21 23 -47 41 -27 19 -52
39 -58 46 -5 6 -25 21 -42 33 -18 12 -33 29 -33 37 0 8 -6 14 -13 14 -15 0
-147 132 -147 148 0 6 -9 14 -20 17 -11 3 -20 13 -20 21 0 8 -4 12 -10 9 -9
-5 -15 15 -11 38 0 4 -4 7 -10 7 -16 0 -38 31 -39 55 0 11 -7 29 -15 39 -8 11
-15 26 -15 34 0 8 -9 27 -21 43 -11 16 -18 29 -15 29 3 0 -3 17 -14 38 -13 25
-20 64 -23 123 -2 47 -7 92 -12 99 -14 22 -13 51 1 57 7 2 11 10 8 17 -3 7 2
25 10 41 12 23 13 31 3 37 -8 5 -7 8 4 8 9 0 22 7 29 16 11 13 10 16 -8 21
-25 6 -28 18 -7 27 8 3 15 0 15 -6 0 -8 7 -5 17 5 13 13 15 20 5 29 -17 17
-15 38 3 38 8 0 15 5 15 11 0 6 -7 8 -16 5 -10 -4 -14 -1 -12 6 3 7 15 15 29
19 13 4 18 7 12 8 -18 1 -16 26 2 45 8 8 15 18 15 22 0 5 77 103 183 231 80
98 441 461 567 571 35 32 111 99 169 150 57 50 106 92 109 92 2 0 74 -46 161
-102z m9305 -62 c-10 -31 -19 -54 -22 -52 -2 2 4 29 14 60 10 31 19 54 22 52
2 -2 -4 -29 -14 -60z m-994 -73 c0 -8 -9 0 -50 45 l-45 47 48 -45 c26 -24 47
-45 47 -47z m955 -48 c-22 -60 -29 -53 -7 7 9 26 18 45 21 43 2 -3 -4 -25 -14
-50z m-823 -85 c24 -30 47 -62 52 -70 9 -19 -36 32 -72 81 -15 19 -44 50 -65
68 -20 18 -37 37 -37 42 0 13 69 -55 122 -121z m109 -142 c16 -30 3 -20 -27
20 -23 30 -24 33 -5 17 13 -11 27 -28 32 -37z m-1834 -85 c-2 -16 -4 -3 -4 27
0 30 2 43 4 28 2 -16 2 -40 0 -55z m2429 30 c-8 -15 -15 -25 -16 -21 0 12 23
58 27 54 3 -2 -2 -17 -11 -33z m-506 -93 c6 -11 8 -20 6 -20 -3 0 -10 9 -16
20 -6 11 -8 20 -6 20 3 0 10 -9 16 -20z m-1886 -84 c8 -32 11 -55 7 -50 -7 8
-31 92 -31 110 0 18 9 -6 24 -60z m-3169 -156 c132 -23 235 -57 324 -106 77
-42 161 -119 161 -149 0 -16 2 -17 10 -5 11 17 13 10 4 -14 -3 -9 -11 -13 -17
-9 -6 4 -8 0 -4 -11 4 -9 3 -15 -1 -12 -17 11 -72 -58 -72 -91 0 -10 -11 -31
-25 -47 -14 -16 -25 -33 -25 -38 0 -4 -8 -8 -17 -8 -22 -1 -73 -44 -74 -62 0
-7 -4 -4 -9 7 -6 14 -9 16 -9 4 -1 -23 -58 -83 -66 -69 -5 8 -12 5 -22 -9 -8
-12 -19 -21 -24 -21 -6 0 -24 -13 -42 -30 -18 -16 -38 -30 -44 -30 -12 0 -17
-13 -14 -32 0 -5 -6 -8 -13 -8 -8 0 -27 -11 -42 -25 -30 -28 -39 -31 -29 -12
4 6 -2 2 -12 -9 -10 -12 -30 -24 -45 -28 -16 -3 -28 -11 -28 -17 0 -6 -4 -8
-9 -4 -5 3 -16 -1 -24 -9 -7 -8 -33 -20 -56 -27 -22 -7 -46 -18 -52 -26 -6 -7
-22 -13 -35 -13 -13 0 -27 -7 -31 -15 -8 -13 -81 -35 -165 -50 -24 -4 -38 -11
-38 -20 0 -8 -4 -15 -10 -15 -5 0 -9 6 -7 13 1 6 -5 10 -13 8 -44 -11 -204
-20 -265 -16 -124 10 -159 16 -204 36 -24 10 -52 19 -61 19 -10 0 -20 4 -22 9
-1 6 -15 12 -31 15 -15 2 -34 12 -43 20 -8 9 -22 16 -30 16 -9 0 -29 14 -46
30 -16 17 -34 30 -40 30 -16 0 -35 28 -68 98 -16 35 -41 77 -56 94 -20 25 -24
38 -20 61 6 29 5 29 -12 14 -10 -10 -21 -14 -25 -11 -3 4 -5 -6 -4 -20 1 -15
9 -31 17 -36 11 -8 12 -12 3 -18 -15 -10 16 -122 35 -122 6 0 12 -7 12 -15 0
-8 5 -15 10 -15 6 0 10 -13 10 -30 0 -22 5 -30 18 -30 11 0 27 -9 37 -20 10
-11 14 -20 10 -20 -16 0 37 -48 66 -60 16 -7 29 -16 29 -20 0 -7 33 -21 56
-24 6 -1 22 -9 36 -18 15 -10 46 -21 70 -24 24 -4 48 -10 54 -15 43 -34 385
-24 431 13 11 9 49 14 120 17 15 1 21 6 17 15 -3 8 -1 17 5 21 6 3 11 -2 11
-12 0 -15 2 -15 9 -4 10 15 21 18 78 25 18 2 38 8 45 13 26 20 41 26 34 15 -4
-7 -2 -12 3 -12 6 0 11 5 11 10 0 10 20 20 70 35 38 11 -61 -51 -138 -86 -463
-212 -873 -194 -1094 46 -71 78 -125 229 -114 319 9 67 36 152 55 174 9 9 23
30 31 46 39 78 190 211 303 268 181 91 371 140 697 182 78 10 358 -4 465 -24z
m3365 -21 c0 -6 -4 -7 -10 -4 -5 3 -10 11 -10 16 0 6 5 7 10 4 6 -3 10 -11 10
-16z m-5692 -64 c-3 -3 -9 2 -12 12 -6 14 -5 15 5 6 7 -7 10 -15 7 -18z m52
-89 c0 -12 -5 -7 -19 24 -11 24 -11 24 3 6 9 -11 16 -24 16 -30z m-2723 -478
c-3 -8 -6 -5 -6 6 -1 11 2 17 5 13 3 -3 4 -12 1 -19z m5 -117 c-3 -9 -1 -12 6
-7 8 5 12 -3 12 -27 0 -18 3 -37 8 -41 4 -4 7 -11 8 -14 8 -52 18 -94 25 -98
5 -3 20 -30 35 -61 14 -31 43 -81 65 -111 21 -30 39 -60 39 -66 0 -6 9 -17 21
-24 13 -8 18 -19 15 -29 -4 -11 -2 -14 9 -9 10 3 17 -3 21 -19 3 -14 10 -25
14 -25 11 0 80 -70 80 -81 0 -5 7 -9 16 -9 8 0 13 -4 10 -9 -4 -5 7 -12 23
-16 16 -3 32 -13 35 -21 3 -8 12 -14 20 -14 8 0 16 -4 18 -9 2 -5 35 -30 73
-55 39 -26 75 -51 82 -56 7 -6 17 -10 23 -10 5 0 10 -4 10 -10 0 -5 26 -21 58
-35 31 -14 71 -32 87 -40 84 -40 317 -126 383 -142 12 -3 22 -10 22 -15 0 -5
21 -8 48 -7 26 1 88 -5 137 -12 50 -7 107 -12 128 -11 20 0 37 -4 37 -10 0 -6
6 -6 15 2 8 7 25 10 40 6 14 -4 25 -2 25 4 0 14 27 13 32 -2 3 -9 18 -9 62 -2
52 10 81 4 56 -11 -25 -15 -207 -27 -340 -21 -225 9 -493 76 -679 171 -38 19
-71 35 -74 35 -9 0 -185 108 -226 138 -210 157 -371 352 -439 532 -42 113 -52
160 -51 255 1 67 3 73 9 40 4 -22 5 -46 2 -54z m1945 -1057 c-3 -3 -12 -4 -19
-1 -8 3 -5 6 6 6 11 1 17 -2 13 -5z m-92 -14 c11 -5 15 -9 8 -9 -6 -1 -18 -3
-26 -6 -8 -4 -14 0 -14 10 0 17 3 17 32 5z"/>
<path d="M5257 17643 c-3 -16 0 -31 6 -35 8 -5 13 0 15 12 2 11 8 18 13 15 5
-4 9 0 9 8 0 12 -19 27 -35 27 -1 0 -5 -12 -8 -27z"/>
<path d="M5368 17573 c7 -3 16 -2 19 1 4 3 -2 6 -13 5 -11 0 -14 -3 -6 -6z"/>
<path d="M3850 16709 c0 -5 5 -7 10 -4 6 3 10 8 10 11 0 2 -4 4 -10 4 -5 0
-10 -5 -10 -11z"/>
<path d="M3790 16701 c0 -18 12 -41 22 -41 5 0 6 5 3 10 -3 6 1 13 9 16 25 9
19 24 -9 24 -14 0 -25 -4 -25 -9z"/>
<path d="M3813 16620 c-1 -11 2 -20 6 -20 5 0 14 -20 21 -45 7 -25 15 -43 18
-40 3 2 19 -10 37 -28 29 -29 121 -96 171 -123 11 -6 63 -21 115 -33 94 -22
206 -24 287 -6 37 9 44 16 32 35 -6 9 -30 13 -84 12 -41 -1 -79 -2 -83 -3 -4
-1 -10 0 -13 1 -3 1 -26 3 -52 5 -25 2 -77 13 -115 26 -37 13 -74 24 -81 25
-36 6 -202 149 -202 173 0 5 -9 13 -20 16 -11 4 -18 11 -15 16 4 5 0 9 -7 9
-8 0 -14 -9 -15 -20z"/>
<path d="M15690 15520 c0 -5 5 -10 10 -10 6 0 10 5 10 10 0 6 -4 10 -10 10 -5
0 -10 -4 -10 -10z"/>
<path d="M9230 14515 c0 -17 43 -115 51 -115 12 0 12 3 -7 66 -9 33 -21 54
-30 54 -8 0 -14 -2 -14 -5z"/>
<path d="M19294 19989 c-7 -12 15 -31 28 -23 4 3 8 12 8 20 0 17 -26 19 -36 3z"/>
<path d="M6295 19930 c-3 -5 -1 -10 4 -10 6 0 11 5 11 10 0 6 -2 10 -4 10 -3
0 -8 -4 -11 -10z"/>
<path d="M6330 19909 c-12 -8 -10 -9 8 -4 13 4 22 2 22 -5 0 -6 5 -8 10 -5 13
8 3 25 -13 25 -7 0 -19 -5 -27 -11z"/>
<path d="M5920 19873 c0 -12 16 -35 24 -34 3 0 13 -2 22 -6 9 -3 20 0 24 7 4
7 13 9 19 6 6 -4 11 -2 11 4 0 7 9 5 22 -4 32 -22 42 -20 18 4 -22 22 -42 25
-71 9 -16 -8 -26 -7 -45 6 -13 8 -24 12 -24 8z"/>
<path d="M6290 19870 c0 -5 4 -10 9 -10 6 0 13 5 16 10 3 6 -1 10 -9 10 -9 0
-16 -4 -16 -10z"/>
<path d="M4759 19757 c7 -7 14 -8 21 -1 6 6 2 10 -12 11 -16 2 -18 -1 -9 -10z"/>
<path d="M6483 19543 c4 -3 2 -12 -4 -19 -7 -8 -6 -14 2 -20 8 -4 9 -3 5 4 -4
7 -1 12 7 12 7 0 14 7 14 15 0 8 -7 15 -15 15 -9 0 -12 -3 -9 -7z"/>
<path d="M6451 19434 c0 -11 3 -14 6 -6 3 7 2 16 -1 19 -3 4 -6 -2 -5 -13z"/>
<path d="M5605 19400 c-3 -5 -1 -10 4 -10 6 0 11 5 11 10 0 6 -2 10 -4 10 -3
0 -8 -4 -11 -10z"/>
<path d="M480 19310 c0 -5 5 -10 10 -10 6 0 10 5 10 10 0 6 -4 10 -10 10 -5 0
-10 -4 -10 -10z"/>
<path d="M6738 19291 c-16 -16 -16 -17 3 -18 11 -1 17 2 14 8 -4 5 -1 9 4 9 6
0 11 5 11 10 0 15 -13 11 -32 -9z"/>
<path d="M6783 19295 c-15 -17 -7 -45 13 -45 11 0 13 7 8 28 -4 15 -7 28 -8
28 -1 1 -7 -4 -13 -11z"/>
<path d="M6717 19222 c-7 -28 9 -50 24 -35 9 9 8 16 -4 33 -14 20 -15 20 -20
2z"/>
<path d="M6756 19231 c-4 -7 -5 -15 -2 -18 9 -9 19 4 14 18 -4 11 -6 11 -12 0z"/>
<path d="M2720 19140 c0 -5 5 -10 11 -10 5 0 7 5 4 10 -3 6 -8 10 -11 10 -2 0
-4 -4 -4 -10z"/>
<path d="M2745 19111 c-3 -5 -1 -12 5 -16 5 -3 10 1 10 9 0 18 -6 21 -15 7z"/>
<path d="M6670 19110 c0 -5 5 -10 10 -10 6 0 10 5 10 10 0 6 -4 10 -10 10 -5
0 -10 -4 -10 -10z"/>
<path d="M2787 19063 c-4 -3 -7 -11 -7 -17 0 -6 5 -5 12 2 6 6 9 14 7 17 -3 3
-9 2 -12 -2z"/>
<path d="M6960 19019 c0 -5 11 -9 25 -9 14 0 25 4 25 9 0 5 -11 9 -25 9 -14 0
-25 -4 -25 -9z"/>
<path d="M2728 18993 c7 -3 16 -2 19 1 4 3 -2 6 -13 5 -11 0 -14 -3 -6 -6z"/>
<path d="M2870 18971 c0 -6 4 -13 10 -16 6 -3 7 1 4 9 -7 18 -14 21 -14 7z"/>
<path d="M2906 18957 c3 -10 9 -15 12 -12 3 3 0 11 -7 18 -10 9 -11 8 -5 -6z"/>
<path d="M7065 18810 c-3 -5 -1 -10 4 -10 6 0 11 5 11 10 0 6 -2 10 -4 10 -3
0 -8 -4 -11 -10z"/>
<path d="M7213 18792 c-3 -7 -3 -16 1 -19 3 -4 6 2 6 12 0 13 3 15 13 7 8 -7
16 -6 24 3 9 10 7 13 -14 11 -14 0 -28 -7 -30 -14z"/>
<path d="M7030 18735 c-7 -9 -8 -15 -2 -15 5 0 12 7 16 15 3 8 4 15 2 15 -2 0
-9 -7 -16 -15z"/>
<path d="M7116 18735 c-6 -16 19 -33 31 -21 4 3 -1 6 -10 6 -10 0 -14 5 -11
15 4 8 4 15 1 15 -3 0 -8 -7 -11 -15z"/>
<path d="M4488 18525 c-4 -4 -4 -13 -1 -21 6 -17 -28 -19 -44 -3 -9 9 -10 7
-6 -10 3 -11 8 -21 12 -20 16 2 75 28 64 28 -6 1 -13 8 -15 17 -2 9 -6 13 -10
9z"/>
<path d="M4440 18440 c0 -5 5 -10 10 -10 6 0 10 5 10 10 0 6 -4 10 -10 10 -5
0 -10 -4 -10 -10z"/>
<path d="M4395 18379 c1 -18 -3 -29 -12 -29 -17 0 -17 -26 0 -36 6 -4 9 -4 5
0 -4 5 2 17 13 29 22 24 25 53 6 60 -10 4 -13 -3 -12 -24z"/>
<path d="M1665 18320 c-3 -5 1 -10 9 -10 9 0 16 5 16 10 0 6 -4 10 -9 10 -6 0
-13 -4 -16 -10z"/>
<path d="M4340 18316 c0 -9 5 -16 10 -16 6 0 10 4 10 9 0 6 -4 13 -10 16 -5 3
-10 -1 -10 -9z"/>
<path d="M4325 18250 c3 -5 1 -10 -6 -10 -7 0 -10 -2 -7 -5 8 -9 38 6 32 16
-3 5 -10 9 -15 9 -6 0 -7 -4 -4 -10z"/>
<path d="M2766 18129 c-31 -33 -31 -34 0 -43 27 -8 65 19 45 33 -8 5 -11 16
-8 25 10 24 -5 18 -37 -15z"/>
<path d="M13040 18060 c0 -5 5 -10 10 -10 6 0 10 5 10 10 0 6 -4 10 -10 10 -5
0 -10 -4 -10 -10z"/>
<path d="M2740 18044 c0 -8 -7 -22 -15 -30 -8 -9 -15 -23 -15 -32 1 -13 7 -10
25 11 25 28 34 67 15 67 -5 0 -10 -7 -10 -16z"/>
<path d="M5620 18029 c0 -5 5 -7 10 -4 6 3 10 8 10 11 0 2 -4 4 -10 4 -5 0
-10 -5 -10 -11z"/>
<path d="M12907 18003 c-9 -2 -15 -8 -12 -12 6 -11 55 -1 55 10 0 9 -13 10
-43 2z"/>
<path d="M2703 17922 c0 -12 5 -22 9 -22 11 0 10 12 -2 30 -7 12 -9 10 -7 -8z"/>
<path d="M2735 17910 c3 -5 8 -10 11 -10 2 0 4 5 4 10 0 6 -5 10 -11 10 -5 0
-7 -4 -4 -10z"/>
<path d="M12776 17754 c-5 -14 -4 -15 9 -4 17 14 19 20 6 20 -5 0 -12 -7 -15
-16z"/>
<path d="M5036 17682 c-3 -5 1 -9 9 -9 8 0 12 4 9 9 -3 4 -7 8 -9 8 -2 0 -6
-4 -9 -8z"/>
<path d="M14141 17544 c0 -11 3 -14 6 -6 3 7 2 16 -1 19 -3 4 -6 -2 -5 -13z"/>
<path d="M14145 17511 c-3 -5 -1 -12 5 -16 5 -3 10 1 10 9 0 18 -6 21 -15 7z"/>
<path d="M4290 17465 c-7 -9 -10 -18 -7 -22 8 -7 37 15 37 28 0 14 -16 11 -30
-6z"/>
<path d="M4250 17444 c0 -8 5 -12 10 -9 6 3 10 10 10 16 0 5 -4 9 -10 9 -5 0
-10 -7 -10 -16z"/>
<path d="M4650 17440 c0 -19 3 -21 12 -12 9 9 9 15 0 24 -9 9 -12 7 -12 -12z"/>
<path d="M4545 17428 c2 -26 15 -35 15 -10 0 11 6 22 13 25 6 3 3 5 -9 4 -13
-1 -20 -7 -19 -19z"/>
<path d="M5208 17163 c7 -3 16 -2 19 1 4 3 -2 6 -13 5 -11 0 -14 -3 -6 -6z"/>
<path d="M5200 17140 c-13 -8 -12 -10 3 -10 9 0 17 5 17 10 0 12 -1 12 -20 0z"/>
<path d="M5208 17113 c7 -3 16 -2 19 1 4 3 -2 6 -13 5 -11 0 -14 -3 -6 -6z"/>
<path d="M5106 16926 c3 -8 12 -12 21 -9 12 5 12 7 1 14 -20 13 -28 11 -22 -5z"/>
<path d="M5174 16928 c-5 -9 -18 -17 -28 -19 -25 -5 -33 -29 -9 -29 17 -1 17
-1 -1 -15 -10 -8 -23 -12 -27 -9 -5 3 -9 1 -9 -4 0 -15 47 -34 68 -28 22 7 38
76 24 103 -8 14 -10 14 -18 1z"/>
<path d="M4995 16620 c-3 -5 -2 -10 4 -10 5 0 13 5 16 10 3 6 2 10 -4 10 -5 0
-13 -4 -16 -10z"/>
<path d="M4950 16560 c-13 -8 -12 -10 3 -10 9 0 17 5 17 10 0 12 -1 12 -20 0z"/>
<path d="M11275 15921 c-3 -5 0 -13 6 -17 7 -4 9 -3 5 4 -3 5 0 13 6 15 9 4
10 6 1 6 -6 1 -14 -3 -18 -8z"/>
<path d="M11155 15890 c3 -5 8 -10 11 -10 2 0 4 5 4 10 0 6 -5 10 -11 10 -5 0
-7 -4 -4 -10z"/>
<path d="M11115 15880 c4 -6 11 -8 16 -5 14 9 11 15 -7 15 -8 0 -12 -5 -9 -10z"/>
<path d="M14467 15113 c-13 -13 -22 -15 -35 -7 -23 14 -143 17 -206 5 -28 -5
-80 -12 -116 -15 -36 -2 -77 -11 -93 -19 -16 -8 -47 -13 -73 -11 -32 2 -47 -1
-51 -12 -3 -8 -11 -14 -18 -14 -8 0 -11 -8 -8 -19 6 -24 81 -41 93 -21 5 8 18
10 36 6 21 -5 25 -4 14 4 -11 7 -12 10 -2 10 7 0 21 7 29 16 9 8 19 12 22 7
11 -15 35 -15 46 1 10 13 18 13 48 4 20 -6 34 -15 31 -20 -9 -14 25 -21 40 -9
11 9 15 9 19 -1 3 -10 8 -11 26 0 26 15 65 17 41 2 -13 -8 -12 -10 3 -10 9 0
17 8 17 18 1 15 2 15 13 1 9 -12 28 -14 85 -11 54 3 82 -1 108 -13 20 -9 43
-14 51 -10 9 3 20 0 24 -6 6 -10 47 -18 106 -22 7 0 14 -6 17 -14 3 -7 17 -13
31 -13 14 0 25 -5 25 -11 0 -5 4 -7 10 -4 5 3 33 -5 62 -19 29 -13 62 -26 73
-28 11 -2 22 -5 25 -8 10 -10 65 -41 83 -47 9 -3 17 -9 17 -14 0 -5 9 -9 20
-9 11 0 20 -4 20 -10 0 -5 9 -10 21 -10 11 0 33 -12 48 -27 15 -16 40 -34 55
-42 14 -8 25 -19 23 -25 -2 -6 6 -16 17 -22 12 -6 20 -17 18 -25 -2 -8 -1 -11
3 -7 4 4 21 -6 38 -22 17 -15 52 -38 79 -51 26 -12 48 -28 48 -36 0 -7 7 -13
15 -13 8 0 15 -4 15 -10 0 -5 15 -13 33 -18 22 -6 32 -14 30 -27 -1 -19 19
-45 36 -45 5 0 14 -6 18 -14 4 -8 17 -15 28 -17 10 -2 30 -20 43 -39 13 -19
32 -39 43 -44 10 -5 19 -17 19 -27 0 -10 12 -26 26 -36 14 -9 30 -27 35 -40 5
-13 13 -22 17 -19 10 6 43 -30 35 -38 -4 -3 3 -6 15 -6 13 0 22 -6 22 -15 0
-8 5 -15 10 -15 10 0 59 -40 112 -92 15 -16 31 -28 35 -28 5 0 14 -9 21 -20 7
-12 17 -18 22 -15 5 3 11 -4 15 -15 3 -11 10 -20 15 -20 6 0 26 -16 46 -35 19
-19 40 -35 45 -35 6 0 8 -3 5 -8 -2 -4 7 -12 20 -19 14 -6 26 -7 30 -2 3 5 0
9 -6 9 -11 0 -110 96 -110 108 -1 4 -19 25 -40 47 -22 22 -40 42 -40 46 0 4
-17 24 -38 46 -22 22 -45 54 -53 72 -8 17 -26 37 -41 44 -16 6 -28 15 -28 20
0 15 -44 67 -57 67 -7 0 -13 8 -13 18 0 9 -14 25 -30 34 -17 9 -30 25 -30 35
0 10 -10 25 -22 33 -33 23 -68 61 -68 76 0 7 -9 16 -20 19 -11 3 -20 13 -20
20 0 8 -13 22 -30 32 -16 9 -30 20 -30 24 0 16 -111 112 -144 125 -9 3 -16 12
-16 20 0 7 -11 16 -25 20 -14 3 -25 13 -25 21 0 8 -4 12 -9 8 -6 -3 -14 3 -20
13 -5 10 -40 33 -76 51 -36 18 -63 37 -60 42 4 5 -2 9 -13 9 -10 0 -30 10 -43
23 -33 29 -137 80 -150 72 -5 -4 -8 -1 -7 6 2 7 -16 17 -42 24 -51 13 -110 42
-110 53 0 4 -14 8 -32 9 -17 1 -35 8 -39 15 -7 10 -11 10 -21 0 -13 -13 -32
-17 -24 -4 2 4 -3 8 -12 9 -9 1 -39 7 -67 13 -27 7 -72 13 -100 13 -34 1 -49
6 -47 15 3 17 -11 15 -31 -5z m-520 -99 c-3 -3 -12 -4 -19 -1 -8 3 -5 6 6 6
11 1 17 -2 13 -5z"/>
<path d="M15407 14539 c7 -7 15 -10 18 -7 3 3 -2 9 -12 12 -14 6 -15 5 -6 -5z"/>
<path d="M12105 13570 c-3 -5 -1 -10 4 -10 6 0 11 5 11 10 0 6 -2 10 -4 10 -3
0 -8 -4 -11 -10z"/>
<path d="M12270 13385 c-7 -9 -9 -19 -5 -23 4 -4 10 -1 12 6 3 6 9 12 15 12 6
0 8 -7 4 -15 -5 -15 5 -21 17 -9 8 8 -10 44 -22 44 -5 0 -14 -7 -21 -15z"/>
<path d="M0 12120 l0 -290 7955 0 7955 0 0 290 0 290 -7955 0 -7955 0 0 -290z"/>
<path d="M12025 11440 c-68 -14 -154 -48 -206 -81 -178 -114 -262 -372 -215
-659 32 -197 126 -330 281 -400 99 -45 157 -55 320 -55 137 0 157 2 235 28
191 63 292 182 320 379 6 38 8 74 4 79 -3 5 -81 9 -174 9 l-169 0 -6 -43 c-15
-100 -80 -160 -186 -173 -117 -14 -203 41 -234 150 -14 47 -16 87 -13 200 4
122 7 147 28 189 32 67 84 100 165 105 131 9 207 -48 224 -167 l6 -46 183 -3
182 -2 -6 57 c-3 32 -10 76 -16 98 -39 157 -183 288 -360 330 -68 16 -292 19
-363 5z"/>
<path d="M7867 11433 l-298 -3 3 -148 3 -147 193 -3 192 -2 0 -435 0 -435 190
0 190 0 0 435 0 435 190 0 190 0 0 154 0 154 -277 -1 c-153 -1 -412 -3 -576
-4z"/>
<path d="M8894 11431 c-2 -2 -4 -267 -4 -588 l0 -583 190 0 190 0 0 220 0 220
28 0 c15 0 107 1 205 3 171 2 177 1 178 -18 0 -11 1 -111 1 -222 l0 -203 189
0 189 0 0 588 0 587 -188 0 -187 0 0 -213 0 -212 -207 0 -208 0 0 213 0 212
-186 0 c-102 0 -188 -2 -190 -4z"/>
<path d="M10678 11432 c-32 -2 -48 -8 -53 -20 -4 -9 -85 -231 -180 -492 -95
-261 -187 -512 -204 -558 -17 -46 -31 -88 -31 -93 0 -5 79 -9 190 -9 l189 0
25 78 24 77 148 5 c82 3 175 3 207 0 l59 -5 24 -77 25 -78 200 0 c188 0 201 1
194 18 -9 23 -247 674 -343 937 -42 116 -80 213 -85 217 -10 6 -293 6 -389 0z
m232 -532 c29 -102 55 -191 58 -197 3 -10 -25 -13 -123 -13 -116 0 -126 1
-121 18 23 71 116 386 116 391 0 3 4 1 8 -4 5 -6 33 -93 62 -195z"/>
<path d="M12970 10848 l0 -588 190 0 190 0 0 133 0 133 95 77 c52 42 98 77
102 77 5 0 62 -94 128 -210 l119 -210 224 0 224 0 -14 23 c-39 60 -396 635
-405 652 -10 18 14 48 193 250 111 127 203 235 203 241 1 7 -12 11 -31 9 -18
-2 -122 -3 -230 -4 l-198 -1 -202 -243 -203 -243 -3 243 -2 243 -28 0 c-15 0
-100 2 -190 3 l-162 2 0 -587z"/>
<path d="M14593 11432 l-203 -2 0 -585 0 -585 515 0 515 0 0 140 0 140 -325 0
-325 0 0 90 0 90 273 2 272 3 0 132 0 133 -272 0 -273 0 0 80 0 80 320 0 321
0 -3 142 -3 141 -305 1 c-168 1 -396 0 -507 -2z"/>
<path d="M15625 11431 c-3 -2 -5 -267 -5 -588 l0 -583 190 0 190 0 0 215 0
215 70 0 69 0 105 -215 104 -215 212 0 c116 0 210 4 208 8 -1 4 -58 111 -125
238 -68 127 -123 235 -123 240 0 6 17 18 38 27 115 51 192 197 178 336 -16
153 -115 270 -262 310 -39 10 -839 22 -849 12z m646 -271 c95 -26 109 -154 22
-199 -13 -6 -77 -11 -157 -11 l-136 0 0 103 c0 57 2 106 6 109 10 10 226 8
265 -2z"/>
<path d="M0 9640 l0 -445 176 175 c96 96 182 188 190 203 21 40 20 101 -3 137
-16 26 -204 220 -327 339 l-36 35 0 -444z"/>
<path d="M7770 9749 c-295 -28 -478 -184 -526 -451 -22 -118 -13 -278 21 -385
56 -179 165 -282 365 -344 65 -21 95 -24 230 -24 176 0 239 13 356 70 195 95
295 298 281 569 -9 187 -52 300 -152 402 -123 125 -336 186 -575 163z m183
-290 c48 -13 102 -60 130 -113 18 -35 22 -61 25 -177 4 -152 -4 -197 -48 -257
-36 -50 -87 -78 -162 -87 -124 -16 -230 48 -263 157 -20 70 -20 257 1 327 19
65 73 126 129 146 48 17 135 19 188 4z"/>
<path d="M11825 9750 c-159 -14 -283 -67 -368 -160 -95 -103 -135 -213 -144
-400 -21 -439 207 -667 647 -647 185 8 287 45 388 140 81 78 132 194 132 304
l0 53 -172 -2 -173 -3 -7 -47 c-13 -96 -76 -152 -184 -164 -95 -12 -173 28
-217 110 -20 38 -22 55 -22 217 l0 176 30 49 c40 65 96 94 181 94 88 0 141
-29 177 -100 15 -29 27 -69 27 -87 l0 -33 180 0 180 0 0 48 c0 115 -56 239
-143 317 -121 109 -288 153 -512 135z"/>
<path d="M14410 9750 c-197 -19 -347 -102 -401 -223 -20 -43 -24 -69 -24 -147
0 -113 19 -165 85 -229 65 -63 148 -98 350 -147 203 -50 237 -63 246 -98 14
-56 -20 -84 -112 -93 -138 -15 -220 23 -231 105 l-6 42 -178 0 -179 0 0 -30
c0 -49 21 -132 46 -181 67 -134 258 -209 531 -209 188 0 333 48 422 139 68 70
94 139 95 256 1 80 -2 97 -27 147 -59 121 -149 165 -486 239 -57 12 -118 32
-135 44 -37 24 -46 67 -21 95 23 25 116 44 173 35 55 -8 112 -58 112 -99 l0
-26 181 0 180 0 -6 48 c-19 140 -77 218 -208 278 -101 46 -267 68 -407 54z"/>
<path d="M19053 9749 c-248 -22 -430 -148 -499 -348 -48 -139 -52 -353 -8
-501 55 -189 193 -310 391 -345 203 -37 406 -1 550 95 l33 22 11 -29 c6 -15
13 -40 16 -55 l6 -28 98 0 99 0 0 330 0 330 -312 -2 -313 -3 -2 -117 -1 -118
135 0 136 0 -7 -32 c-8 -45 -63 -93 -127 -112 -157 -47 -304 20 -344 158 -26
88 -17 282 15 349 25 53 70 92 127 113 48 17 153 18 206 2 52 -16 115 -75 123
-116 l7 -32 180 0 180 0 -6 55 c-17 161 -153 303 -347 358 -96 28 -223 37
-347 26z"/>
<path d="M4973 9732 l-343 -2 -1 -63 c-3 -434 -4 -1076 -1 -1090 4 -17 28 -18
446 -15 l441 3 63 29 c123 57 190 170 180 305 -9 124 -63 206 -161 247 -26 10
-47 22 -47 25 0 3 18 14 41 24 53 25 113 94 129 149 16 60 9 171 -15 221 -26
53 -81 106 -140 135 -65 31 -151 36 -592 32z m317 -265 c62 -22 80 -102 34
-156 l-26 -31 -149 0 -149 0 0 93 c0 52 3 97 7 100 11 12 246 6 283 -6z m57
-459 c28 -31 36 -73 23 -114 -19 -56 -46 -63 -216 -61 l-149 2 -3 98 -3 97
164 0 c157 0 164 -1 184 -22z"/>
<path d="M5956 9733 c-3 -4 -6 -269 -6 -590 l0 -583 190 0 190 0 0 215 0 216
71 -3 71 -3 102 -212 101 -212 213 -1 212 0 -21 43 c-12 23 -68 130 -125 238
-57 108 -104 200 -104 205 0 5 18 17 39 28 56 26 116 90 149 155 23 49 27 68
27 146 0 75 -5 99 -26 145 -32 70 -79 123 -135 156 -89 52 -110 54 -540 59
-221 2 -405 1 -408 -2z m651 -274 c65 -21 92 -94 59 -158 -23 -43 -54 -51
-201 -51 l-135 0 0 103 c0 57 2 106 5 108 9 10 242 8 272 -2z"/>
<path d="M9025 9731 c-13 -22 -425 -1148 -425 -1163 0 -5 86 -7 191 -6 l191 3
24 78 25 77 207 -2 206 -3 22 -75 21 -75 203 -3 c190 -2 202 -1 195 15 -4 10
-101 275 -215 588 l-208 570 -215 3 c-128 1 -218 -2 -222 -7z m275 -531 c29
-102 55 -191 58 -197 3 -10 -25 -13 -123 -13 -98 0 -126 3 -122 13 2 6 28 91
56 187 29 96 54 183 57 194 3 10 9 14 13 10 4 -5 32 -92 61 -194z"/>
<path d="M10037 9734 c-4 -4 -7 -270 -7 -591 l0 -585 343 5 c286 3 352 7 401
21 145 43 251 122 309 234 52 99 70 183 70 332 1 202 -44 331 -153 434 -68 65
-134 100 -242 127 -73 18 -122 22 -398 26 -173 2 -319 1 -323 -3z m585 -294
c49 -14 94 -53 120 -104 18 -33 22 -64 26 -162 9 -249 -47 -322 -255 -332
l-103 -5 0 307 0 306 88 0 c48 0 104 -5 124 -10z"/>
<path d="M13074 9732 l-72 -3 -62 -172 c-34 -95 -129 -355 -211 -578 -82 -224
-149 -410 -149 -413 0 -3 88 -6 195 -6 135 0 195 3 195 11 0 6 9 42 21 80 l21
69 206 0 207 0 24 -80 24 -80 199 0 c185 0 199 1 194 18 -3 9 -99 274 -214
587 l-208 570 -149 0 c-83 0 -182 -1 -221 -3z m209 -533 c32 -111 56 -203 54
-205 -2 -3 -58 -3 -124 -2 l-119 3 59 203 c33 111 63 202 66 202 3 0 32 -91
64 -201z"/>
<path d="M15160 9584 l0 -154 190 0 190 0 0 -435 0 -435 190 0 190 0 0 435 0
435 193 2 192 3 0 149 0 150 -572 2 -573 1 0 -153z"/>
<path d="M16504 9733 c-7 -6 -10 -182 -10 -590 l1 -583 188 0 187 0 0 588 0
588 -177 2 c-98 1 -183 -1 -189 -5z"/>
<path d="M17147 9734 c-4 -4 -7 -270 -7 -591 l0 -583 175 0 175 0 2 281 3 280
243 -280 243 -281 164 0 165 0 0 585 c0 461 -3 585 -12 586 -7 0 -85 0 -173 0
l-160 -1 -5 -282 -5 -282 -105 124 c-58 68 -166 195 -241 283 l-137 159 -158
5 c-88 2 -163 1 -167 -3z"/>
<path d="M490 9449 c-19 -11 -137 -123 -262 -247 l-228 -227 0 -761 0 -762
615 615 c631 632 635 636 635 709 0 12 -12 38 -26 59 -42 62 -586 606 -621
621 -45 19 -72 17 -113 -7z m76 -364 c4 -14 4 -28 1 -31 -9 -9 -36 27 -31 41
9 23 23 18 30 -10z m-36 -46 c0 -5 -11 -9 -25 -9 -28 0 -34 16 -7 23 20 4 32
-1 32 -14z m-14 -43 c19 -19 18 -26 -4 -26 -19 0 -42 18 -42 32 0 13 30 9 46
-6z m-57 -27 c13 -17 20 -33 18 -36 -8 -8 -67 39 -67 54 0 23 26 14 49 -18z
m-41 -36 c2 -8 -5 -13 -18 -13 -19 0 -21 -4 -15 -32 l7 -33 -23 22 c-21 21
-22 23 -5 48 17 26 46 31 54 8z m-68 -79 c0 -11 -6 -14 -20 -9 -24 8 -25 -3
-4 -33 12 -18 12 -22 2 -22 -30 0 -52 53 -31 73 13 14 53 7 53 -9z m561 -86
c46 -51 38 -66 -13 -23 -47 40 -80 12 -38 -32 20 -22 26 -43 13 -43 -5 0 -23
16 -42 35 l-35 35 29 30 c36 38 49 38 86 -2z m-121 -73 c0 -13 9 -33 21 -44
12 -11 18 -24 15 -30 -5 -7 -20 2 -42 23 -37 36 -40 46 -22 64 19 19 28 14 28
-13z m-31 -61 c29 -36 27 -70 -5 -90 -24 -16 -27 -16 -51 2 -32 24 -50 51 -40
60 4 4 20 -5 36 -20 45 -43 69 -18 31 31 -11 14 -20 30 -20 34 0 18 29 8 49
-17z m-127 -59 c7 -9 26 -29 42 -46 29 -31 28 -53 -2 -31 -9 7 -29 20 -44 30
-15 9 -29 24 -31 34 -8 30 14 38 35 13z m-15 -81 c3 -8 -4 -25 -17 -40 -27
-28 -8 -34 22 -7 23 20 33 12 19 -16 -14 -25 -58 -38 -80 -24 -9 6 -20 22 -25
36 -8 21 -6 31 9 47 21 24 63 26 72 4z m-107 -79 c0 -13 9 -33 21 -44 12 -11
18 -25 14 -31 -5 -8 -18 -1 -41 21 -37 35 -41 48 -22 67 19 19 28 14 28 -13z"/>
<path d="M560 8469 c0 -18 2 -19 15 -9 8 7 15 16 15 21 0 5 -7 9 -15 9 -9 0
-15 -9 -15 -21z"/>
<path d="M1361 8576 c-13 -7 -325 -314 -692 -681 l-669 -668 0 -522 0 -522 89
-86 c101 -97 131 -110 197 -82 29 12 273 250 916 895 482 483 884 892 892 909
17 31 21 107 8 128 -4 6 -140 148 -302 314 -173 177 -308 308 -327 315 -40 17
-81 17 -112 0z m371 -628 c28 -23 61 -79 52 -88 -11 -11 -94 65 -94 86 0 17
21 18 42 2z m-72 -23 c0 -8 7 -15 15 -15 9 0 19 -10 24 -23 5 -13 16 -29 25
-36 18 -15 22 -41 5 -41 -15 0 -87 59 -94 78 -7 18 3 52 16 52 5 0 9 -7 9 -15z
m-45 -65 c-3 -5 -10 -10 -16 -10 -5 0 -9 5 -9 10 0 6 7 10 16 10 8 0 12 -4 9
-10z m85 -87 c0 -22 -21 -15 -51 19 -18 18 -28 37 -24 46 4 12 13 8 40 -18 19
-19 35 -40 35 -47z m-65 -3 c19 -20 26 -33 19 -40 -7 -7 -18 -2 -34 15 -13 14
-29 25 -37 25 -20 0 -15 -45 7 -65 14 -13 17 -22 10 -29 -13 -13 -116 87 -106
103 5 7 13 7 26 -2 16 -9 23 -9 37 6 25 25 45 21 78 -13z m-125 -68 c0 -4 -5
-13 -12 -20 -18 -18 -3 -25 21 -10 17 11 23 10 37 -4 21 -20 11 -52 -20 -66
-34 -15 -40 -3 -14 26 l23 25 -25 -7 c-43 -12 -52 -12 -63 6 -9 13 -7 21 7 37
19 21 46 28 46 13z"/>
<path d="M2655 7252 c-16 -11 -169 -159 -340 -330 -328 -329 -335 -339 -321
-415 5 -28 36 -65 144 -178 75 -78 155 -155 176 -171 44 -31 91 -36 134 -14
41 22 637 626 656 665 18 39 20 69 7 104 -12 31 -296 324 -332 343 -38 19 -88
18 -124 -4z m-55 -507 c0 -16 -46 -95 -55 -95 -6 0 -22 11 -34 24 l-23 24 24
15 c54 34 88 46 88 32z"/>
<path d="M1341 6800 c-28 -7 -100 -74 -362 -337 -358 -359 -358 -358 -325
-437 10 -25 131 -154 358 -383 420 -424 382 -388 424 -408 76 -36 79 -34 422
308 173 172 322 329 333 349 22 43 24 93 5 127 -15 27 -697 724 -741 756 -37
28 -70 35 -114 25z m429 -383 c0 -3 -466 -468 -478 -477 -26 -19 53 64 243
257 191 193 235 235 235 220z m-532 -114 c35 -8 37 -22 7 -53 -32 -34 -40 -32
-60 17 -17 39 -11 58 14 47 9 -3 26 -9 39 -11z m42 -376 c0 -2 -15 -16 -32
-33 -27 -24 -29 -25 -13 -4 24 30 45 47 45 37z m437 -132 c7 -21 10 -42 5 -47
-4 -4 -27 1 -51 13 l-43 21 28 29 c15 16 32 28 38 26 5 -2 15 -21 23 -42z
m-547 22 c0 -2 -10 -12 -22 -23 l-23 -19 19 23 c18 21 26 27 26 19z"/>
<path d="M0 5837 l0 -128 29 34 c53 60 53 127 1 187 l-29 35 -1 -128z"/>
<path d="M845 5440 c-11 -4 -165 -153 -342 -329 -288 -289 -322 -326 -328
-361 -12 -70 6 -96 172 -262 182 -180 209 -196 279 -160 49 26 649 627 663
665 13 33 14 97 3 114 -19 30 -261 278 -301 309 -45 35 -99 44 -146 24z m-61
-509 c10 -11 16 -25 14 -31 -5 -16 -86 -51 -93 -40 -8 14 33 90 49 90 7 0 21
-9 30 -19z"/>
<path d="M0 4414 l0 -171 28 5 c30 4 82 -29 82 -54 0 -20 -23 -17 -43 6 -19
23 -47 27 -47 7 0 -8 11 -24 25 -37 17 -16 22 -27 15 -34 -6 -6 -19 -2 -36 15
-24 21 -26 22 -19 4 14 -36 17 -73 6 -79 -7 -5 -11 -71 -11 -199 l0 -192 191
192 c105 106 188 197 184 202 -3 6 -1 11 4 11 16 0 13 77 -3 108 -8 15 -96
108 -195 207 l-181 180 0 -171z"/>
<path d="M16926 2793 c-3 -10 -21 -94 -41 -188 -19 -93 -37 -180 -40 -192 l-5
-23 170 0 c138 0 170 -3 170 -14 0 -8 -45 -226 -100 -485 -55 -259 -100 -478
-100 -486 0 -13 33 -15 247 -13 l247 3 23 115 c35 169 167 790 224 1057 27
127 49 234 49 237 0 3 -189 6 -419 6 -391 0 -420 -1 -425 -17z m751 -75 c-3
-13 -35 -165 -71 -338 -37 -173 -95 -448 -129 -610 l-63 -295 -172 -3 c-102
-1 -172 1 -172 7 0 5 45 222 100 481 55 259 100 480 100 491 0 18 -9 19 -169
19 l-168 0 24 118 c13 64 26 125 29 135 5 16 31 17 351 17 l345 0 -5 -22z"/>
<path d="M17790 2803 c0 -3 -18 -91 -40 -194 -22 -104 -40 -195 -40 -204 0
-13 23 -15 159 -15 l159 0 16 73 c9 39 29 134 45 210 l29 137 -164 0 c-90 0
-164 -3 -164 -7z m230 -85 c-1 -24 -46 -237 -52 -243 -6 -6 -32 -7 -102 -6
l-68 1 6 33 c3 17 16 78 27 135 l22 102 83 0 c81 0 84 -1 84 -22z"/>
<path d="M18167 2583 c-27 -126 -93 -439 -148 -697 -54 -257 -99 -474 -99
-482 0 -12 43 -14 244 -14 224 0 245 1 250 18 3 9 35 157 71 327 95 445 225
1067 225 1071 0 2 -111 4 -248 4 l-248 0 -47 -227z m453 150 c0 -3 -23 -113
-50 -242 -28 -130 -88 -411 -133 -626 l-82 -390 -165 -5 c-91 -3 -169 -2 -173
1 -8 6 247 1241 260 1262 5 9 343 10 343 0z"/>
<path d="M18699 2643 l-35 -168 68 -3 c49 -2 68 -7 68 -16 0 -39 -34 -163 -48
-173 -9 -7 -42 -13 -73 -13 -46 0 -59 -3 -63 -17 -2 -10 -17 -74 -31 -143 -14
-69 -29 -133 -31 -142 -5 -16 4 -18 90 -18 70 0 96 -3 96 -12 -1 -26 -36 -173
-43 -185 -6 -9 -37 -13 -98 -13 -63 0 -91 -4 -94 -12 -8 -23 -65 -302 -65
-320 0 -17 17 -18 224 -18 l225 0 140 115 c82 68 143 125 146 138 17 74 57
268 61 297 5 32 -1 41 -60 106 l-65 71 73 65 73 66 32 157 c18 85 30 162 28
169 -3 8 -45 64 -93 125 l-87 111 -202 0 -202 0 -34 -167z m470 8 c39 -49 71
-98 71 -109 0 -11 -11 -74 -25 -139 -23 -105 -29 -121 -58 -147 -17 -16 -58
-54 -91 -83 l-59 -54 34 -37 c19 -20 54 -58 78 -84 l45 -47 -29 -144 -29 -144
-117 -97 -118 -96 -170 0 c-130 0 -171 3 -171 13 0 6 7 49 16 95 l17 82 68 0
c58 0 72 4 101 27 18 15 34 28 36 28 1 1 14 61 29 134 25 127 25 132 8 151
-15 17 -31 20 -92 20 l-73 0 6 28 c3 15 10 43 14 62 4 19 11 47 14 63 6 24 11
27 51 27 35 0 51 6 79 30 31 28 35 39 57 150 22 116 22 120 4 140 -13 15 -30
20 -68 20 -38 0 -48 3 -44 14 3 8 13 53 23 100 l17 86 152 0 153 0 71 -89z"/>
<path d="M2 1983 c2 -7 341 -353 754 -770 412 -417 847 -856 965 -976 117
-121 223 -224 234 -230 19 -9 19 -9 5 9 -36 48 -1962 1982 -1958 1967z"/>
<path d="M19940 1060 c0 -5 7 -10 15 -10 8 0 15 5 15 10 0 6 -7 10 -15 10 -8
0 -15 -4 -15 -10z"/>
<path d="M6940 340 c0 -5 5 -10 11 -10 5 0 7 5 4 10 -3 6 -8 10 -11 10 -2 0
-4 -4 -4 -10z"/>
</g>
</svg>
